<svg xmlns="http://www.w3.org/2000/svg" width="72.891" height="58.312" viewBox="0 0 72.891 58.312">
  <path id="Path_2087" data-name="Path 2087" d="M65.6,0H7.289A7.289,7.289,0,0,0,0,7.289V51.023a7.289,7.289,0,0,0,7.289,7.289H65.6a7.289,7.289,0,0,0,7.289-7.289V7.289A7.289,7.289,0,0,0,65.6,0ZM23.69,10.934a9.111,9.111,0,1,1-9.111,9.111,9.111,9.111,0,0,1,9.111-9.111Zm-12.7,36.522.572-2.278a12.49,12.49,0,0,1,12.133-10.3A12.486,12.486,0,0,1,35.8,45.1l.579,2.267-25.392.084Zm47.328-3.721H47.379a3.645,3.645,0,1,1,0-7.289H58.313a3.645,3.645,0,1,1,0,7.289Zm0-10.934H47.379a3.645,3.645,0,1,1,0-7.289H58.313a3.645,3.645,0,1,1,0,7.289Zm0-10.934H47.379a3.645,3.645,0,1,1,0-7.289H58.313a3.645,3.645,0,1,1,0,7.289Z" fill="#bcbcbc"/>
</svg>
