<svg xmlns="http://www.w3.org/2000/svg" width="58.308" height="72.896" viewBox="0 0 58.308 72.896">
  <path id="Path_2089" data-name="Path 2089" d="M29.156,0A29.127,29.127,0,0,0,5.164,45.684a3.644,3.644,0,0,0,.437.667l.437.532c.408.528.827,1.039,1.188,1.458l19.116,23.23a3.645,3.645,0,0,0,5.631-.011L50.532,48.946a27.654,27.654,0,0,0,2.107-2.551l.463-.565a3.4,3.4,0,0,0,.445-.7A29.16,29.16,0,0,0,29.156,0Zm0,40.09A10.934,10.934,0,1,1,40.09,29.156,10.934,10.934,0,0,1,29.156,40.09Z" transform="translate(0)" fill="#bcbcbc"/>
</svg>
