<svg xmlns="http://www.w3.org/2000/svg" width="51.024" height="72.89" viewBox="0 0 51.024 72.89">
  <path id="Path_2088" data-name="Path 2088" d="M48.775.277a3.645,3.645,0,0,0-3.973.791L40.09,5.781,35.378,1.068a3.645,3.645,0,0,0-5.153,0L25.512,5.781,20.8,1.068a3.645,3.645,0,0,0-5.153,0L10.934,5.781,6.221,1.068A3.645,3.645,0,0,0,0,3.645v65.6a3.645,3.645,0,0,0,6.221,2.577l4.712-4.712,4.712,4.712a3.645,3.645,0,0,0,5.153,0l4.712-4.712,4.712,4.712a3.645,3.645,0,0,0,5.153,0l4.712-4.712L44.8,71.823a3.645,3.645,0,0,0,6.221-2.577V3.645A3.645,3.645,0,0,0,48.775.277ZM36.446,54.668H14.578a3.645,3.645,0,1,1,0-7.289H36.446a3.645,3.645,0,1,1,0,7.289Zm0-14.578H14.578a3.645,3.645,0,1,1,0-7.289H36.446a3.645,3.645,0,1,1,0,7.289Zm0-14.578H14.578a3.645,3.645,0,1,1,0-7.289H36.446a3.645,3.645,0,1,1,0,7.289Z" transform="translate(0 0)" fill="#bcbcbc"/>
</svg>
