<svg xmlns="http://www.w3.org/2000/svg" width="65.602" height="65.601" viewBox="0 0 65.602 65.601">
  <path id="Path_2090" data-name="Path 2090" d="M22.389,0H6.768A6.768,6.768,0,0,0,0,6.768v15.62a6.766,6.766,0,0,0,6.768,6.768H22.389a6.768,6.768,0,0,0,6.768-6.768V6.768A6.768,6.768,0,0,0,22.389,0ZM58.834,0H43.214a6.768,6.768,0,0,0-6.768,6.768v15.62a6.766,6.766,0,0,0,6.768,6.768H58.834A6.768,6.768,0,0,0,65.6,22.388V6.768A6.768,6.768,0,0,0,58.834,0ZM22.389,36.445H6.768A6.768,6.768,0,0,0,0,43.213v15.62A6.766,6.766,0,0,0,6.768,65.6H22.389a6.768,6.768,0,0,0,6.768-6.768V43.213A6.768,6.768,0,0,0,22.389,36.445ZM61.958,47.379H54.668V40.09a3.645,3.645,0,0,0-7.289,0v7.289H40.09a3.645,3.645,0,1,0,0,7.289h7.289v7.289a3.645,3.645,0,0,0,7.289,0V54.668h7.289a3.645,3.645,0,1,0,0-7.289Z" fill="#bcbcbc"/>
</svg>
