<svg xmlns="http://www.w3.org/2000/svg" width="64.698" height="50.32" viewBox="0 0 64.698 50.32">
  <path id="Icon_awesome-credit-card" data-name="Icon awesome-credit-card" d="M0,47.179A5.393,5.393,0,0,0,5.392,52.57H59.307A5.393,5.393,0,0,0,64.7,47.179V27.41H0Zm21.566-7.638a1.352,1.352,0,0,1,1.348-1.348H38.19a1.352,1.352,0,0,1,1.348,1.348v4.493a1.352,1.352,0,0,1-1.348,1.348H22.914a1.352,1.352,0,0,1-1.348-1.348Zm-14.377,0a1.352,1.352,0,0,1,1.348-1.348h8.087a1.352,1.352,0,0,1,1.348,1.348v4.493a1.352,1.352,0,0,1-1.348,1.348H8.537a1.352,1.352,0,0,1-1.348-1.348ZM64.7,7.641v5.391H0V7.641A5.393,5.393,0,0,1,5.392,2.25H59.307A5.393,5.393,0,0,1,64.7,7.641Z" transform="translate(0 -2.25)" fill="#bcbcbc"/>
</svg>
