<svg width="359" height="190" viewBox="0 0 359 190" fill="none" xmlns="http://www.w3.org/2000/svg">
<rect x="31" y="35" width="103" height="15" rx="5" fill="#E6E6E6"/>
<rect x="31" y="70" width="103" height="15" rx="5" fill="#E6E6E6"/>
<rect x="31" y="105" width="103" height="15" rx="5" fill="#E6E6E6"/>
<rect x="31" y="140" width="103" height="15" rx="5" fill="#E6E6E6"/>
<rect x="31" y="175" width="103" height="15" rx="5" fill="#E6E6E6"/>
<rect x="155" y="35" width="204" height="15" rx="7.5" fill="#E6E6E6"/>
<rect x="155" width="204" height="15" rx="7.5" fill="#E6E6E6"/>
<rect x="155" y="70" width="204" height="15" rx="7.5" fill="#E6E6E6"/>
<rect x="155" y="105" width="204" height="15" rx="7.5" fill="#E6E6E6"/>
<rect x="155" y="140" width="204" height="15" rx="7.5" fill="#E6E6E6"/>
<rect x="155" y="175" width="204" height="15" rx="7.5" fill="#E6E6E6"/>
<circle cx="7.5" cy="7.5" r="7.5" fill="#E6E6E6"/>
<circle cx="7.5" cy="42.5" r="7.5" fill="#E6E6E6"/>
<circle cx="7.5" cy="77.5" r="7.5" fill="#E6E6E6"/>
<circle cx="7.5" cy="112.5" r="7.5" fill="#E6E6E6"/>
<circle cx="7.5" cy="147.5" r="7.5" fill="#E6E6E6"/>
<circle cx="7.5" cy="182.5" r="7.5" fill="#E6E6E6"/>
<rect x="31" width="103" height="15" rx="5" fill="#E6E6E6"/>
</svg>
