<svg width="208" height="209" viewBox="0 0 208 209" fill="none" xmlns="http://www.w3.org/2000/svg">
<ellipse cx="104" cy="104.5" rx="96" ry="96.5" stroke="#E6E6E6" stroke-width="15"/>
<path d="M90.08 85.6H95.2V108H90.944L79.776 94.4V108H74.656V85.6H78.944L90.08 99.2V85.6ZM96.7878 111.2L107.348 81.056H111.796L101.236 111.2H96.7878ZM128.486 108L126.502 103.2H116.102L114.118 108H108.806L118.79 85.6H123.91L133.926 108H128.486ZM117.766 99.264H124.87L121.318 90.688L117.766 99.264Z" fill="#E6E6E6"/>
<path d="M79.54 132.28L80.38 134.48C79.74 134.94 78.8 135.16 77.84 135.16C75.3 135.16 73.82 133.86 73.82 131.3V126.88H72.16V124.48H73.82V121.86H76.94V124.48H79.62V126.88H76.94V131.26C76.94 132.18 77.44 132.68 78.28 132.68C78.74 132.68 79.2 132.54 79.54 132.28ZM89.0514 135.24C84.7114 135.24 81.4714 132.22 81.4714 128C81.4714 123.78 84.7114 120.76 89.0714 120.76C91.4914 120.76 93.5114 121.64 94.8314 123.24L92.7514 125.16C91.8114 124.08 90.6314 123.52 89.2314 123.52C86.6114 123.52 84.7514 125.36 84.7514 128C84.7514 130.64 86.6114 132.48 89.2314 132.48C90.6314 132.48 91.8114 131.92 92.7514 130.82L94.8314 132.74C93.5114 134.36 91.4914 135.24 89.0514 135.24ZM103.506 135.24C99.0864 135.24 95.8464 132.16 95.8464 128C95.8464 123.84 99.0864 120.76 103.506 120.76C107.906 120.76 111.166 123.82 111.166 128C111.166 132.18 107.906 135.24 103.506 135.24ZM103.506 132.48C106.006 132.48 107.886 130.66 107.886 128C107.886 125.34 106.006 123.52 103.506 123.52C101.006 123.52 99.1264 125.34 99.1264 128C99.1264 130.66 101.006 132.48 103.506 132.48ZM116.966 132.36H122.986V135H112.406V132.9L117.806 127.8C119.046 126.62 119.266 125.9 119.266 125.22C119.266 124.12 118.506 123.48 117.026 123.48C115.826 123.48 114.806 123.94 114.126 124.88L111.766 123.36C112.846 121.78 114.806 120.76 117.326 120.76C120.446 120.76 122.526 122.36 122.526 124.9C122.526 126.26 122.146 127.5 120.186 129.32L116.966 132.36ZM135.328 129.66C135.328 129.9 135.288 130.24 135.268 130.5H127.128C127.428 131.84 128.568 132.66 130.208 132.66C131.348 132.66 132.168 132.32 132.908 131.62L134.568 133.42C133.568 134.56 132.068 135.16 130.128 135.16C126.408 135.16 123.988 132.82 123.988 129.62C123.988 126.4 126.448 124.08 129.728 124.08C132.888 124.08 135.328 126.2 135.328 129.66ZM129.748 126.44C128.328 126.44 127.308 127.3 127.088 128.68H132.388C132.168 127.32 131.148 126.44 129.748 126.44Z" fill="#E6E6E6"/>
</svg>
