<svg width="328" height="265" viewBox="0 0 328 265" fill="none" xmlns="http://www.w3.org/2000/svg">
<path d="M218.416 265L218.347 264.993L109.584 254.889L10.6829 264.077C8.10061 264.317 5.52882 263.521 3.53327 261.865C1.53771 260.208 0.281866 257.827 0.0419953 255.244C0.0140764 254.944 0.000105843 254.642 8.15846e-05 254.34V19.0943C-0.00990101 16.6543 0.896536 14.2996 2.53993 12.4962C4.18333 10.6929 6.44386 9.57248 8.87397 9.35676L109.584 0L109.654 0.00660817L218.416 10.1112L317.317 0.922707C319.899 0.682792 322.471 1.47863 324.467 3.13515C326.462 4.79167 327.718 7.17317 327.958 9.75576C327.986 10.0564 328 10.3579 328 10.6602V245.906C328.01 248.346 327.104 250.7 325.46 252.504C323.817 254.307 321.556 255.427 319.126 255.643L218.416 265Z" fill="#F4F4F4"/>
<path d="M151.612 87.0292C130.558 71.6941 108.406 57.1527 85.7771 43.8111L84.6413 43.1416V88.3908H153.481L151.612 87.0292ZM86.1457 86.8863V45.7783C107.673 58.5143 128.753 72.3335 148.855 86.8863L86.1457 86.8863ZM258.162 180.021C249.057 170.554 239.716 161.302 230.14 152.266C227.499 149.773 224.843 147.299 222.17 144.845C205.859 129.86 189.012 115.608 171.627 102.09L171.424 101.932H84.6413V181.297H259.388L258.162 180.021ZM86.1457 179.792V103.436H170.909C187.671 116.477 203.98 130.247 219.835 144.747C222.588 147.264 225.322 149.8 228.037 152.357C237.53 161.279 246.8 170.424 255.849 179.792H86.1457ZM258.162 180.021C249.057 170.554 239.716 161.302 230.14 152.266C227.499 149.773 224.843 147.299 222.17 144.845C205.859 129.86 189.012 115.608 171.627 102.09L171.424 101.932H84.6413V181.297H259.388L258.162 180.021ZM86.1457 179.792V103.436H170.909C187.671 116.477 203.98 130.247 219.835 144.747C222.588 147.264 225.322 149.8 228.037 152.357C237.53 161.279 246.8 170.424 255.849 179.792H86.1457ZM151.612 87.0292C130.558 71.6941 108.406 57.1527 85.7771 43.8111L84.6413 43.1416V88.3908H153.481L151.612 87.0292ZM86.1457 86.8863V45.7783C107.673 58.5143 128.753 72.3335 148.855 86.8863L86.1457 86.8863ZM151.612 87.0292C130.558 71.6941 108.406 57.1527 85.7771 43.8111L84.6413 43.1416V88.3908H153.481L151.612 87.0292ZM86.1457 86.8863V45.7783C107.673 58.5143 128.753 72.3335 148.855 86.8863L86.1457 86.8863ZM258.162 180.021C249.057 170.554 239.716 161.302 230.14 152.266C227.499 149.773 224.843 147.299 222.17 144.845C205.859 129.86 189.012 115.608 171.627 102.09L171.424 101.932H84.6413V181.297H259.388L258.162 180.021ZM86.1457 179.792V103.436H170.909C187.671 116.477 203.98 130.247 219.835 144.747C222.588 147.264 225.322 149.8 228.037 152.357C237.53 161.279 246.8 170.424 255.849 179.792H86.1457ZM10.1829 194.837V196.342H69.5977V218.158H10.1829V219.663H71.1021V194.837H10.1829ZM84.6413 233.203V248.448L86.1457 248.309V234.708H317.817V233.203L84.6413 233.203ZM317.817 196.342V194.837H84.6413V219.663H317.817V218.158H86.1457V196.342L317.817 196.342ZM177.329 86.8863C148.468 64.6206 117.99 44.5358 86.1457 26.7985V11.5649L84.6413 11.7041V27.0555L85.7997 28.3293C117.514 46.0184 147.869 66.0414 176.614 88.2328L176.817 88.3908H317.817V86.8863L177.329 86.8863ZM69.5977 86.8863H10.1829V88.3908H71.1021V12.9604L69.5977 13.0996L69.5977 86.8863ZM317.817 101.932H193.862L195.483 103.263C210.744 115.822 225.729 129.143 240.437 143.224C242.528 145.225 244.611 147.242 246.688 149.276C257.022 159.375 267.156 169.804 277.087 180.563L278.327 181.297H317.817V179.792H278.422C268.598 169.14 258.562 158.796 248.312 148.761C246.263 146.752 244.205 144.757 242.141 142.776C227.751 128.968 213.055 115.855 198.051 103.436H317.817V101.932ZM10.1829 233.203V234.708H69.5977V249.844L71.1021 249.704V233.203H10.1829ZM10.1829 101.932V103.436H69.5977V179.792H10.1829V181.297H71.1021V101.932H10.1829ZM151.612 87.0292C130.558 71.6941 108.406 57.1527 85.7771 43.8111L84.6413 43.1416V88.3908H153.481L151.612 87.0292ZM86.1457 86.8863V45.7783C107.673 58.5143 128.753 72.3335 148.855 86.8863L86.1457 86.8863ZM258.162 180.021C249.057 170.554 239.716 161.302 230.14 152.266C227.499 149.773 224.843 147.299 222.17 144.845C205.859 129.86 189.012 115.608 171.627 102.09L171.424 101.932H84.6413V181.297H259.388L258.162 180.021ZM86.1457 179.792V103.436H170.909C187.671 116.477 203.98 130.247 219.835 144.747C222.588 147.264 225.322 149.8 228.037 152.357C237.53 161.279 246.8 170.424 255.849 179.792H86.1457ZM151.612 87.0292C130.558 71.6941 108.406 57.1527 85.7771 43.8111L84.6413 43.1416V88.3908H153.481L151.612 87.0292ZM86.1457 86.8863V45.7783C107.673 58.5143 128.753 72.3335 148.855 86.8863L86.1457 86.8863ZM258.162 180.021C249.057 170.554 239.716 161.302 230.14 152.266C227.499 149.773 224.843 147.299 222.17 144.845C205.859 129.86 189.012 115.608 171.627 102.09L171.424 101.932H84.6413V181.297H259.388L258.162 180.021ZM86.1457 179.792V103.436H170.909C187.671 116.477 203.98 130.247 219.835 144.747C222.588 147.264 225.322 149.8 228.037 152.357C237.53 161.279 246.8 170.424 255.849 179.792H86.1457Z" fill="white"/>
<path d="M167.993 99.0086C167.993 118.061 133.501 160.503 133.501 160.503C133.501 160.503 99.008 118.061 99.008 99.0086C99.008 89.8595 102.642 81.085 109.111 74.6156C115.579 68.1462 124.353 64.5117 133.501 64.5117C142.649 64.5117 151.422 68.1462 157.891 74.6156C164.359 81.085 167.993 89.8595 167.993 99.0086Z" fill="url(#paint0_linear_10_67)"/>
<path d="M149.269 97.5088C149.269 100.628 148.344 103.677 146.612 106.27C144.879 108.863 142.417 110.885 139.535 112.078C136.654 113.272 133.484 113.584 130.425 112.976C127.366 112.367 124.557 110.865 122.351 108.66C120.146 106.454 118.644 103.644 118.036 100.585C117.428 97.5262 117.74 94.3554 118.933 91.4738C120.127 88.5922 122.148 86.1293 124.741 84.3965C127.334 82.6636 130.383 81.7387 133.501 81.7387C135.572 81.7378 137.623 82.145 139.536 82.9372C141.45 83.7294 143.189 84.891 144.653 86.3555C146.117 87.8201 147.279 89.559 148.071 91.4727C148.863 93.3864 149.27 95.4375 149.269 97.5088Z" fill="white"/>
<path d="M133.501 185.401C138.636 185.401 142.799 181.238 142.799 176.102C142.799 170.966 138.636 166.803 133.501 166.803C128.366 166.803 124.203 170.966 124.203 176.102C124.203 181.238 128.366 185.401 133.501 185.401Z" fill="#4690CD"/>
<path d="M222.589 59.3635C230.181 59.3635 236.336 53.2079 236.336 45.6147C236.336 38.0214 230.181 31.8658 222.589 31.8658C214.996 31.8658 208.841 38.0214 208.841 45.6147C208.841 53.2079 214.996 59.3635 222.589 59.3635Z" fill="#8900F5"/>
<path d="M265.698 87.9834H198.259C198.174 87.9845 198.09 87.9778 198.007 87.9635L229.902 32.7088C230.097 32.3647 230.38 32.0784 230.721 31.8792C231.063 31.68 231.451 31.5751 231.846 31.5751C232.241 31.5751 232.63 31.68 232.971 31.8792C233.313 32.0784 233.595 32.3647 233.79 32.7088L255.196 69.789L256.221 71.5633L265.698 87.9834Z" fill="white"/>
<path d="M265.698 87.9834L242.673 87.9834L255.196 69.789L256.221 71.5633L265.698 87.9834Z" fill="black"/>
<path d="M303.248 87.9834H244.918L256.221 71.5633L271.764 48.9817C272.729 47.5793 275.052 47.492 276.188 48.7172C276.264 48.8008 276.335 48.8892 276.4 48.9817L303.248 87.9834Z" fill="white"/>
<path d="M307.576 165.874C311.419 165.874 314.534 162.758 314.534 158.915C314.534 155.072 311.419 151.957 307.576 151.957C303.733 151.957 300.618 155.072 300.618 158.915C300.618 162.758 303.733 165.874 307.576 165.874Z" fill="white"/>
<path d="M308.247 179.875H306.822L307.471 157.867L308.247 179.875Z" fill="#CBCBCB"/>
<path d="M307.597 162.038L309.127 159.921L307.576 162.562L307.409 162.269L307.597 162.038Z" fill="#CBCBCB"/>
<path d="M307.43 164.176L305.899 162.059L307.451 164.7L307.618 164.407L307.43 164.176Z" fill="#CBCBCB"/>
<path d="M287.792 159.197C293.468 159.197 298.068 154.595 298.068 148.92C298.068 143.244 293.468 138.642 287.792 138.642C282.117 138.642 277.517 143.244 277.517 148.92C277.517 154.595 282.117 159.197 287.792 159.197Z" fill="white"/>
<path d="M288.783 179.875H286.678L287.638 147.372L288.783 179.875Z" fill="#CBCBCB"/>
<path d="M287.824 153.532L290.083 150.406L287.793 154.306L287.545 153.872L287.824 153.532Z" fill="#CBCBCB"/>
<path d="M287.576 156.689L285.316 153.563L287.607 157.463L287.855 157.03L287.576 156.689Z" fill="#CBCBCB"/>
<path d="M49.2196 165.874C53.0622 165.874 56.1772 162.758 56.1772 158.915C56.1772 155.072 53.0622 151.957 49.2196 151.957C45.377 151.957 42.2619 155.072 42.2619 158.915C42.2619 162.758 45.377 165.874 49.2196 165.874Z" fill="white"/>
<path d="M49.8905 179.875H48.4655L49.115 157.867L49.8905 179.875Z" fill="#CBCBCB"/>
<path d="M49.2405 162.038L50.7707 159.921L49.2196 162.562L49.0522 162.269L49.2405 162.038Z" fill="#CBCBCB"/>
<path d="M49.0732 164.176L47.543 162.059L49.0941 164.7L49.2615 164.407L49.0732 164.176Z" fill="#CBCBCB"/>
<path d="M29.4361 159.197C35.1113 159.197 39.7119 154.595 39.7119 148.92C39.7119 143.244 35.1113 138.642 29.4361 138.642C23.7609 138.642 19.1602 143.244 19.1602 148.92C19.1602 154.595 23.7609 159.197 29.4361 159.197Z" fill="white"/>
<path d="M30.4265 179.875H28.3219L29.2816 147.372L30.4265 179.875Z" fill="#CBCBCB"/>
<path d="M29.4672 153.532L31.7264 150.406L29.4363 154.306L29.1888 153.872L29.4672 153.532Z" fill="#CBCBCB"/>
<path d="M29.2197 156.689L26.96 153.563L29.2507 157.463L29.4981 157.03L29.2197 156.689Z" fill="#CBCBCB"/>
<defs>
<linearGradient id="paint0_linear_10_67" x1="-45.2081" y1="35.8564" x2="-43.1155" y2="314.169" gradientUnits="userSpaceOnUse">
<stop stop-color="#4699CF"/>
<stop offset="1" stop-color="#4673C4"/>
</linearGradient>
</defs>
</svg>
