<svg width="256" height="250" viewBox="0 0 256 250" fill="none" xmlns="http://www.w3.org/2000/svg">
<path d="M162.519 56.2242H93.5385C91.9666 56.2261 90.4596 56.8517 89.348 57.9637C88.2365 59.0758 87.6112 60.5835 87.6093 62.1561V215.536L86.8187 215.777L69.8966 220.961C69.0946 221.206 68.2284 221.122 67.4881 220.729C66.7477 220.335 66.1938 219.663 65.9478 218.861L15.6123 54.3695C15.3673 53.5671 15.4508 52.7003 15.8444 51.9595C16.238 51.2187 16.9095 50.6646 17.7113 50.4188L145.463 11.2919C145.86 11.1698 146.277 11.1271 146.69 11.1663C147.104 11.2055 147.505 11.3259 147.872 11.5206C148.239 11.7153 148.564 11.9804 148.828 12.3008C149.092 12.6212 149.291 12.9906 149.412 13.3879L162.278 55.4333L162.519 56.2242Z" fill="#F2F2F2"/>
<path d="M162.065 4.75899C161.807 3.91466 161.385 3.12946 160.824 2.44827C160.262 1.76708 159.572 1.20325 158.793 0.788983C158.014 0.374722 157.16 0.118148 156.282 0.0339354C155.403 -0.0502774 154.517 0.0395201 153.673 0.298187L4.754 45.9106C3.05085 46.4339 1.62478 47.6118 0.788812 49.1858C-0.0471574 50.7598 -0.224729 52.6014 0.295082 54.3063L53.2947 227.49C53.717 228.867 54.5691 230.071 55.7258 230.927C56.8826 231.784 58.2832 232.246 59.7222 232.248C60.3881 232.248 61.0504 232.148 61.6866 231.951L86.8188 224.256L87.6093 224.01V223.184L86.8188 223.425L61.4535 231.196C59.9501 231.654 58.3264 231.498 56.9384 230.76C55.5505 230.022 54.5117 228.764 54.0498 227.261L1.05419 54.073C0.825355 53.3283 0.7456 52.5457 0.819489 51.7702C0.893377 50.9946 1.11945 50.2412 1.48478 49.5532C1.85011 48.8652 2.34752 48.256 2.94851 47.7606C3.54949 47.2651 4.24226 46.8932 4.98714 46.666L153.906 1.05353C154.471 0.881025 155.059 0.79307 155.649 0.79252C156.917 0.795367 158.151 1.20426 159.169 1.9593C160.188 2.71434 160.938 3.77585 161.31 4.98836L176.746 55.4334L176.991 56.2243H177.813L162.065 4.75899Z" fill="#3F3D56"/>
<path d="M48.4939 50.5481C47.732 50.5476 46.9904 50.3028 46.3778 49.8497C45.7651 49.3966 45.3138 48.7589 45.09 48.0304L39.9986 31.3926C39.8618 30.9457 39.8143 30.4762 39.8589 30.0109C39.9034 29.5457 40.0392 29.0937 40.2584 28.6809C40.4776 28.2682 40.7759 27.9026 41.1363 27.6052C41.4967 27.3078 41.9121 27.0843 42.3589 26.9476L111.905 5.64654C112.807 5.37112 113.781 5.46505 114.614 5.90773C115.447 6.35041 116.071 7.10566 116.348 8.00772L121.439 24.6457C121.715 25.5482 121.621 26.5232 121.178 27.3565C120.736 28.1899 119.981 28.8136 119.079 29.0909L49.5332 50.3919C49.1965 50.4953 48.8462 50.548 48.4939 50.5481Z" fill="#4690CD"/>
<path d="M75.1647 17.7778C79.5309 17.7778 83.0704 14.2368 83.0704 9.86862C83.0704 5.50048 79.5309 1.9594 75.1647 1.9594C70.7985 1.9594 67.259 5.50048 67.259 9.86862C67.259 14.2368 70.7985 17.7778 75.1647 17.7778Z" fill="#4690CD"/>
<path d="M75.1647 14.877C77.9295 14.877 80.1708 12.6347 80.1708 9.86862C80.1708 7.10258 77.9295 4.86026 75.1647 4.86026C72.3999 4.86026 70.1586 7.10258 70.1586 9.86862C70.1586 12.6347 72.3999 14.877 75.1647 14.877Z" fill="white"/>
<path d="M238.212 230.227H104.607C103.716 230.226 102.862 229.871 102.232 229.241C101.602 228.611 101.248 227.757 101.247 226.866V66.7039C101.248 65.8127 101.602 64.9583 102.232 64.3281C102.862 63.698 103.716 63.3435 104.607 63.3425H238.212C239.103 63.3435 239.957 63.698 240.587 64.3282C241.217 64.9583 241.571 65.8127 241.572 66.7039V226.866C241.571 227.757 241.217 228.611 240.587 229.241C239.957 229.871 239.103 230.226 238.212 230.227Z" fill="#E6E6E6"/>
<path d="M176.746 55.4334L93.5386 55.4333C91.7571 55.4358 90.0494 56.1449 88.7897 57.4052C87.53 58.6654 86.8213 60.3739 86.8187 62.1561L86.8188 223.425L87.6093 223.184L87.6093 62.1561C87.6112 60.5835 88.2365 59.0758 89.348 57.9637C90.4596 56.8517 91.9666 56.2261 93.5385 56.2242L176.991 56.2243L176.746 55.4334ZM249.28 55.4333H93.5386C91.7571 55.4358 90.0494 56.1449 88.7897 57.4052C87.53 58.6654 86.8213 60.3739 86.8187 62.1561V243.277C86.8213 245.059 87.53 246.768 88.7897 248.028C90.0494 249.288 91.7571 249.997 93.5386 250H249.28C251.062 249.997 252.769 249.288 254.029 248.028C255.289 246.768 255.998 245.059 256 243.277V62.1561C255.998 60.3739 255.289 58.6654 254.029 57.4052C252.769 56.1449 251.062 55.4358 249.28 55.4333ZM255.21 243.277C255.208 244.85 254.582 246.358 253.471 247.47C252.359 248.582 250.852 249.207 249.28 249.209H93.5386C91.9666 249.207 90.4596 248.582 89.3481 247.47C88.2365 246.358 87.6112 244.85 87.6093 243.277L87.6093 62.1561C87.6112 60.5835 88.2365 59.0758 89.348 57.9637C90.4596 56.8517 91.9666 56.2261 93.5385 56.2242H249.28C250.852 56.2261 252.359 56.8517 253.471 57.9637C254.582 59.0758 255.208 60.5835 255.21 62.1561V243.277Z" fill="#3F3D56"/>
<path d="M207.776 72.8336H135.043C134.1 72.8325 133.196 72.4572 132.529 71.7899C131.862 71.1227 131.487 70.218 131.486 69.2744V51.8741C131.487 50.9305 131.862 50.0259 132.529 49.3586C133.196 48.6914 134.1 48.3161 135.043 48.315H207.776C208.719 48.3161 209.623 48.6914 210.29 49.3586C210.957 50.0259 211.332 50.9305 211.333 51.8741V69.2744C211.332 70.218 210.957 71.1227 210.29 71.7899C209.623 72.4572 208.719 72.8325 207.776 72.8336Z" fill="#4690CD"/>
<path d="M171.409 49.5014C175.776 49.5014 179.315 45.9603 179.315 41.5922C179.315 37.224 175.776 33.6829 171.409 33.6829C167.043 33.6829 163.504 37.224 163.504 41.5922C163.504 45.9603 167.043 49.5014 171.409 49.5014Z" fill="#4690CD"/>
<path d="M171.409 46.4096C174.069 46.4096 176.225 44.2528 176.225 41.5922C176.225 38.9316 174.069 36.7747 171.409 36.7747C168.75 36.7747 166.594 38.9316 166.594 41.5922C166.594 44.2528 168.75 46.4096 171.409 46.4096Z" fill="white"/>
</svg>
