<svg width="12" height="15" viewBox="0 0 12 15" fill="none" xmlns="http://www.w3.org/2000/svg">
<g clip-path="url(#clip0_22_147)">
<path d="M10.5497 0H5.25018V3.75C5.25017 4.14782 5.09214 4.52936 4.81084 4.81066C4.52953 5.09196 4.148 5.25 3.75018 5.25H0.000175283V13.5C-0.00584579 13.8911 0.143465 14.2686 0.415372 14.5498C0.687278 14.831 1.05959 14.9929 1.45068 15H10.5497C10.9408 14.9929 11.3131 14.831 11.585 14.5498C11.8569 14.2686 12.0062 13.8911 12.0002 13.5V1.5C12.0062 1.1089 11.8569 0.731364 11.585 0.450178C11.3131 0.168993 10.9408 0.00710158 10.5497 0ZM8.29967 11.25H3.62118C3.42226 11.25 3.2315 11.171 3.09085 11.0303C2.95019 10.8897 2.87118 10.6989 2.87118 10.5C2.87118 10.3011 2.95019 10.1103 3.09085 9.96967C3.2315 9.82902 3.42226 9.75 3.62118 9.75H8.29967C8.49859 9.75 8.68935 9.82902 8.83001 9.96967C8.97066 10.1103 9.04967 10.3011 9.04967 10.5C9.04967 10.6989 8.97066 10.8897 8.83001 11.0303C8.68935 11.171 8.49859 11.25 8.29967 11.25ZM8.29967 8.25H3.62118C3.42226 8.25 3.2315 8.17098 3.09085 8.03033C2.95019 7.88968 2.87118 7.69891 2.87118 7.5C2.87118 7.30109 2.95019 7.11032 3.09085 6.96967C3.2315 6.82902 3.42226 6.75 3.62118 6.75H8.29967C8.49859 6.75 8.68935 6.82902 8.83001 6.96967C8.97066 7.11032 9.04967 7.30109 9.04967 7.5C9.04967 7.69891 8.97066 7.88968 8.83001 8.03033C8.68935 8.17098 8.49859 8.25 8.29967 8.25Z" fill="white"/>
<path d="M3.75016 3.75V0.0975037C3.38418 0.198738 3.0503 0.392151 2.78041 0.659254L0.659406 2.78025C0.392836 3.05055 0.199508 3.38429 0.0976562 3.75H3.75016Z" fill="white"/>
</g>
<defs>
<clipPath id="clip0_22_147">
<rect width="12" height="15" fill="white"/>
</clipPath>
</defs>
</svg>
