<svg width="18" height="20" viewBox="0 0 18 20" fill="none" xmlns="http://www.w3.org/2000/svg">
<path fill-rule="evenodd" clip-rule="evenodd" d="M9 1.66667C8.54813 1.66667 8.18182 2.03976 8.18182 2.5V3.33333C8.18182 3.79357 7.81551 4.16667 7.36364 4.16667H2.45455C2.00268 4.16667 1.63636 4.53976 1.63636 5V5.31592C1.63636 5.60168 1.8638 5.83333 2.14437 5.83333C2.74966 5.83333 3.25128 6.31132 3.29155 6.92646L4.03818 18.3333H13.9618L14.7085 6.92646C14.7487 6.31132 15.2503 5.83333 15.8556 5.83333C16.1362 5.83333 16.3636 5.60168 16.3636 5.31592V5C16.3636 4.53976 15.9973 4.16667 15.5455 4.16667H10.6364C10.1845 4.16667 9.81818 3.79357 9.81818 3.33333V2.5C9.81818 2.03976 9.45187 1.66667 9 1.66667ZM6.54545 2.5C6.54545 1.11929 7.64439 0 9 0C10.3556 0 11.4545 1.11929 11.4545 2.5H15.5455C16.9011 2.5 18 3.61929 18 5V5.31592C18 6.36186 17.2782 7.23607 16.3142 7.44995L15.5436 19.2221C15.515 19.6598 15.158 20 14.7273 20H3.27273C2.84198 20 2.48501 19.6598 2.45636 19.2221L1.68582 7.44995C0.721849 7.23607 0 6.36186 0 5.31592V5C0 3.61929 1.09894 2.5 2.45455 2.5H6.54545ZM10.1571 11.6667L12.0331 9.75592C12.3526 9.43049 12.3526 8.90285 12.0331 8.57741C11.7136 8.25197 11.1955 8.25197 10.876 8.57741L9 10.4882L7.124 8.57741C6.80448 8.25197 6.28643 8.25197 5.96691 8.57741C5.64739 8.90285 5.64739 9.43049 5.96691 9.75592L7.84292 11.6667L5.96691 13.5774C5.64739 13.9028 5.64739 14.4305 5.96691 14.7559C6.28643 15.0814 6.80448 15.0814 7.124 14.7559L9 12.8452L10.876 14.7559C11.1955 15.0814 11.7136 15.0814 12.0331 14.7559C12.3526 14.4305 12.3526 13.9028 12.0331 13.5774L10.1571 11.6667Z" fill="#3F556E"/>
</svg>
