<svg width="25" height="24" viewBox="0 0 25 24" fill="none" xmlns="http://www.w3.org/2000/svg">
<path fill-rule="evenodd" clip-rule="evenodd" d="M3.5 3.81818C3.5 2.81403 4.31015 2 5.30952 2H17.0714C18.0708 2 18.881 2.81403 18.881 3.81818V11.0909H21.5952C22.0949 11.0909 22.5 11.4979 22.5 12V17.4545C22.5 19.9649 20.4746 22 17.9762 22H5.30952C4.31015 22 3.5 21.186 3.5 20.1818V3.81818ZM18.881 20.0266C19.9352 19.6522 20.6905 18.642 20.6905 17.4545V12.9091H18.881V20.0266ZM17.0714 20.1818H5.30952V3.81818H17.0714V12V20.1818ZM7.11905 6.54545C7.11905 6.04338 7.52412 5.63636 8.02381 5.63636H14.3571C14.8568 5.63636 15.2619 6.04338 15.2619 6.54545C15.2619 7.04753 14.8568 7.45455 14.3571 7.45455H8.02381C7.52412 7.45455 7.11905 7.04753 7.11905 6.54545ZM8.02381 9.27273C7.52412 9.27273 7.11905 9.67974 7.11905 10.1818C7.11905 10.6839 7.52412 11.0909 8.02381 11.0909H14.3571C14.8568 11.0909 15.2619 10.6839 15.2619 10.1818C15.2619 9.67974 14.8568 9.27273 14.3571 9.27273H8.02381ZM7.11905 13.8182C7.11905 13.3161 7.52412 12.9091 8.02381 12.9091H14.3571C14.8568 12.9091 15.2619 13.3161 15.2619 13.8182C15.2619 14.3203 14.8568 14.7273 14.3571 14.7273H8.02381C7.52412 14.7273 7.11905 14.3203 7.11905 13.8182ZM8.02381 16.5455C7.52412 16.5455 7.11905 16.9525 7.11905 17.4545C7.11905 17.9566 7.52412 18.3636 8.02381 18.3636H11.6429C12.1425 18.3636 12.5476 17.9566 12.5476 17.4545C12.5476 16.9525 12.1425 16.5455 11.6429 16.5455H8.02381Z" fill="#18214D" fill-opacity="0.6"/>
</svg>
