<svg width="73" height="72" viewBox="0 0 73 72" fill="none" xmlns="http://www.w3.org/2000/svg">
<path d="M36.2551 50.49C42.2198 50.49 47.0551 45.6547 47.0551 39.69C47.0551 33.7253 42.2198 28.89 36.2551 28.89C30.2904 28.89 25.4551 33.7253 25.4551 39.69C25.4551 45.6547 30.2904 50.49 36.2551 50.49Z" fill="#18214D" fill-opacity="0.1"/>
<path fill-rule="evenodd" clip-rule="evenodd" d="M12.4417 14.8535C13.1027 13.8797 14.2302 12.96 15.7925 12.96H57.2069C58.7691 12.96 59.8966 13.8797 60.5576 14.8535C61.2101 15.8147 61.5521 17.0086 61.5521 18.0972V53.334C61.5521 54.8161 61.1249 56.2303 60.3545 57.3177C59.5891 58.3981 58.3712 59.2848 56.8397 59.2848H16.1597C14.6026 59.2848 13.3642 58.3731 12.5922 57.1444C11.8306 55.9321 11.4473 54.331 11.4473 52.5348V18.0972C11.4473 17.0086 11.7893 15.8147 12.4417 14.8535ZM15.2714 16.7743C15.0185 17.1469 14.8673 17.6666 14.8673 18.0972V52.5348C14.8673 53.885 15.1608 54.8039 15.4881 55.325C15.8052 55.8297 16.0679 55.8648 16.1597 55.8648H56.8397C56.957 55.8648 57.2402 55.7974 57.5638 55.3407C57.8825 54.8909 58.1321 54.1847 58.1321 53.334V18.0972C58.1321 17.6666 57.9809 17.1469 57.7279 16.7743C57.4835 16.4143 57.2934 16.38 57.2069 16.38H15.7925C15.7059 16.38 15.5158 16.4143 15.2714 16.7743Z" fill="#002855"/>
<path d="M32.1793 32.13H32.3377C32.5019 32.1546 32.6604 32.2082 32.8057 32.2884L43.3681 38.3796C43.5534 38.4872 43.7072 38.6417 43.8142 38.8274C43.9211 39.0131 43.9773 39.2237 43.9773 39.438C43.9773 39.6523 43.9211 39.8629 43.8142 40.0486C43.7072 40.2343 43.5534 40.3888 43.3681 40.4964L32.7985 46.5876C32.6136 46.6952 32.4037 46.7521 32.1898 46.7527C31.9759 46.7533 31.7656 46.6974 31.5801 46.5908C31.3947 46.4843 31.2406 46.3307 31.1335 46.1455C31.0263 45.9604 30.9698 45.7503 30.9697 45.5364V33.3468C30.9729 33.0544 31.0795 32.7725 31.2706 32.5511C31.4616 32.3297 31.7249 32.1831 32.0137 32.1372L32.1793 32.13ZM33.4177 35.4564V43.4268L40.3225 39.438L33.4177 35.4564Z" fill="#002855"/>
<path fill-rule="evenodd" clip-rule="evenodd" d="M32.1795 31.9824H32.3489L32.3597 31.984C32.5412 32.0112 32.7165 32.0705 32.8772 32.1592L32.8796 32.1605L43.442 38.2517C43.6497 38.3724 43.8224 38.5456 43.9422 38.7538C44.062 38.9619 44.1251 39.1978 44.1251 39.438C44.1251 39.6781 44.062 39.9141 43.9422 40.1222C43.8224 40.3304 43.6501 40.5034 43.4424 40.624L32.8729 46.7152C32.8728 46.7152 32.873 46.7151 32.8729 46.7152C32.6657 46.8357 32.43 46.8997 32.1903 46.9003C31.9505 46.9009 31.7147 46.8383 31.5067 46.7188C31.2988 46.5993 31.126 46.427 31.0059 46.2195C30.8857 46.0119 30.8224 45.7763 30.8223 45.5365L30.8223 33.3452C30.8258 33.0179 30.9451 32.7024 31.159 32.4547C31.3728 32.2069 31.6675 32.0428 31.9907 31.9914L31.999 31.9901L32.1795 31.9824ZM32.1827 32.2776L32.029 32.2843C31.7777 32.3261 31.549 32.4546 31.3824 32.6475C31.2143 32.8423 31.1204 33.0903 31.1175 33.3476L31.1175 45.5363C31.1175 45.5363 31.1175 45.5364 31.1175 45.5363C31.1176 45.7243 31.1672 45.9089 31.2613 46.0716C31.3555 46.2342 31.4909 46.3692 31.6538 46.4629C31.8168 46.5565 32.0016 46.6056 32.1895 46.6051C32.3775 46.6046 32.562 46.5546 32.7244 46.46L43.2941 40.3688C43.2941 40.3688 43.2942 40.3687 43.2941 40.3688C43.457 40.2741 43.5924 40.1382 43.6864 39.975C43.7804 39.8116 43.8299 39.6265 43.8299 39.438C43.8299 39.2495 43.7804 39.0644 43.6864 38.901C43.5924 38.7377 43.4572 38.602 43.2943 38.5073C43.2943 38.5073 43.2944 38.5074 43.2943 38.5073L32.7334 32.417C32.6068 32.3473 32.4692 32.3002 32.3266 32.2776H32.1827ZM33.2703 35.2009L40.6179 39.4379L33.2703 43.6825V35.2009ZM33.5655 35.7119V43.1711L40.0274 39.4381L33.5655 35.7119Z" fill="#002855"/>
<path fill-rule="evenodd" clip-rule="evenodd" d="M12.7939 21.5748C12.7939 20.6304 13.5595 19.8648 14.5039 19.8648H59.8423C60.7868 19.8648 61.5523 20.6304 61.5523 21.5748C61.5523 22.5192 60.7868 23.2848 59.8423 23.2848H14.5039C13.5595 23.2848 12.7939 22.5192 12.7939 21.5748Z" fill="#002855"/>
</svg>
