<svg xmlns="http://www.w3.org/2000/svg" width="20" height="25" viewBox="0 0 20 25" fill="none">
  <g clip-path="url(#clip0_413_1491)">
    <path d="M6.21812 6.25V0.164288C5.61052 0.332145 5.05622 0.657145 4.60851 1.1L1.09439 4.63572C0.653795 5.08572 0.330453 5.64286 0.163452 6.25357H6.22167L6.21812 6.25Z" fill="#D9D9D9"/>
    <path d="M17.4924 0H8.7053V6.25C8.7053 7.63214 7.59315 8.75 6.21806 8.75H-5.4978e-05V22.5C-0.0213742 23.8571 1.05525 24.975 2.40547 25H17.4924C18.8426 24.975 19.9192 23.8571 19.8979 22.5V2.5C19.9192 1.14286 18.8426 0.025 17.4924 0ZM17.7589 15.3214L11.3809 23.25C11.2778 23.3786 11.125 23.4536 10.958 23.4536C10.6631 23.4536 10.4251 23.2143 10.4251 22.9179C10.4251 22.8857 10.4251 22.8536 10.4322 22.825L11.2494 18.3036H8.08349C7.82766 18.3036 7.61802 18.0964 7.61802 17.8357C7.61802 17.7286 7.65355 17.625 7.72106 17.5429L14.0991 9.61429C14.2838 9.38214 14.6214 9.33929 14.8559 9.525C15.0016 9.64286 15.0798 9.82857 15.0549 10.0179C15.0549 10.025 15.0549 10.0321 15.0513 10.0429L14.2305 14.5607H17.3964C17.6558 14.5607 17.8619 14.7679 17.8619 15.0286C17.8619 15.1357 17.8264 15.2393 17.7589 15.3214Z" fill="#D9D9D9"/>
  </g>
  <defs>
    <clipPath id="clip0_413_1491">
      <rect width="19.898" height="25" fill="white"/>
    </clipPath>
  </defs>
</svg>