<svg xmlns="http://www.w3.org/2000/svg" width="20" height="25" viewBox="0 0 20 25" fill="none">
  <path d="M6.2501 6.25001V0.162506C5.64058 0.332259 5.08434 0.654472 4.63385 1.09876L1.09885 4.63376C0.654563 5.08425 0.33235 5.64048 0.162598 6.25001H6.2501Z" fill="#D9D9D9"/>
  <path d="M17.5828 0H8.75029V6.25C8.75029 6.91304 8.4869 7.54893 8.01806 8.01777C7.54922 8.48661 6.91333 8.75 6.25029 8.75H0.000292138V22.5C-0.00974298 23.1518 0.239109 23.7811 0.692287 24.2497C1.14546 24.7183 1.76598 24.9882 2.41779 25H17.5828C18.2346 24.9882 18.8551 24.7183 19.3083 24.2497C19.7615 23.7811 20.0103 23.1518 20.0003 22.5V2.5C20.0103 1.84816 19.7615 1.21894 19.3083 0.750297C18.8551 0.281655 18.2346 0.011836 17.5828 0ZM7.50029 20C7.50029 20.3315 7.3686 20.6495 7.13418 20.8839C6.89976 21.1183 6.58181 21.25 6.25029 21.25C5.91877 21.25 5.60083 21.1183 5.36641 20.8839C5.13199 20.6495 5.00029 20.3315 5.00029 20V17.5C5.00029 17.1685 5.13199 16.8505 5.36641 16.6161C5.60083 16.3817 5.91877 16.25 6.25029 16.25C6.58181 16.25 6.89976 16.3817 7.13418 16.6161C7.3686 16.8505 7.50029 17.1685 7.50029 17.5V20ZM11.2503 20C11.2503 20.3315 11.1186 20.6495 10.8842 20.8839C10.6498 21.1183 10.3318 21.25 10.0003 21.25C9.66877 21.25 9.35083 21.1183 9.11641 20.8839C8.88199 20.6495 8.75029 20.3315 8.75029 20V12.5C8.75029 12.1685 8.88199 11.8505 9.11641 11.6161C9.35083 11.3817 9.66877 11.25 10.0003 11.25C10.3318 11.25 10.6498 11.3817 10.8842 11.6161C11.1186 11.8505 11.2503 12.1685 11.2503 12.5V20ZM15.0003 20C15.0003 20.3315 14.8686 20.6495 14.6342 20.8839C14.3998 21.1183 14.0818 21.25 13.7503 21.25C13.4188 21.25 13.1008 21.1183 12.8664 20.8839C12.632 20.6495 12.5003 20.3315 12.5003 20V15C12.5003 14.6685 12.632 14.3505 12.8664 14.1161C13.1008 13.8817 13.4188 13.75 13.7503 13.75C14.0818 13.75 14.3998 13.8817 14.6342 14.1161C14.8686 14.3505 15.0003 14.6685 15.0003 15V20Z" fill="#D9D9D9"/>
</svg>