<svg xmlns="http://www.w3.org/2000/svg" width="19" height="25" viewBox="0 0 19 25" fill="none">
  <g clip-path="url(#clip0_419_1679)">
    <path d="M17.5659 4.54546C17.568 3.94531 17.4117 3.35523 17.1127 2.83487C16.8137 2.31451 16.3826 1.88231 15.863 1.58194C15.3434 1.28158 14.7538 1.1237 14.1536 1.12427C13.5535 1.12484 12.9641 1.28383 12.4451 1.58518C11.9261 1.88653 11.4958 2.31955 11.1978 2.84048C10.8998 3.3614 10.7445 3.95177 10.7478 4.55192C10.7511 5.15206 10.9127 5.74071 11.2164 6.25836C11.5201 6.77601 11.955 7.20432 12.4773 7.5C12.4202 8.23965 12.087 8.93077 11.5438 9.43604C11.0007 9.94132 10.2873 10.2238 9.54546 10.2273H7.50001C6.44402 10.228 5.41336 10.5507 4.54546 11.1523V7.74319C5.30366 7.47512 5.94268 6.94765 6.34959 6.254C6.75649 5.56035 6.90508 4.74519 6.76909 3.95258C6.6331 3.15997 6.22129 2.44095 5.60644 1.92261C4.99159 1.40427 4.21329 1.11997 3.4091 1.11997C2.60491 1.11997 1.82661 1.40427 1.21176 1.92261C0.596906 2.44095 0.185093 3.15997 0.0491029 3.95258C-0.0868872 4.74519 0.0617017 5.56035 0.468608 6.254C0.875513 6.94765 1.51454 7.47512 2.27273 7.74319V17.2523C1.51454 17.5203 0.875513 18.0478 0.468608 18.7415C0.0617017 19.4351 -0.0868872 20.2503 0.0491029 21.0429C0.185093 21.8355 0.596906 22.5545 1.21176 23.0729C1.82661 23.5912 2.60491 23.8755 3.4091 23.8755C4.21329 23.8755 4.99159 23.5912 5.60644 23.0729C6.22129 22.5545 6.6331 21.8355 6.76909 21.0429C6.90508 20.2503 6.75649 19.4351 6.34959 18.7415C5.94268 18.0478 5.30366 17.5203 4.54546 17.2523V15.4545C4.54756 14.6716 4.85952 13.9213 5.41315 13.3677C5.96678 12.8141 6.71706 12.5021 7.50001 12.5H9.54546C10.8197 12.4948 12.0481 12.0243 12.9998 11.177C13.9516 10.3297 14.561 9.16393 14.7136 7.89887C15.5087 7.76724 16.2315 7.35818 16.7536 6.74429C17.2758 6.1304 17.5636 5.35137 17.5659 4.54546Z" fill="#D9D9D9"/>
  </g>
  <defs>
    <clipPath id="clip0_419_1679">
      <rect width="18.1818" height="25" fill="white"/>
    </clipPath>
  </defs>
</svg>