<svg xmlns="http://www.w3.org/2000/svg" width="19" height="28" viewBox="0 0 19 28" fill="none">
  <g clip-path="url(#clip0_419_1661)">
    <path d="M18.6619 10.2498C18.6619 7.57104 18.1684 6.8849 15.579 6.04838C15.579 4.62911 15.6072 3.17225 15.5696 1.72008C15.5367 0.531091 14.7518 -0.164445 13.7367 0.0329371C12.7592 0.230319 12.4444 0.939953 12.4397 1.84227C12.4303 3.25684 12.435 4.66671 12.435 6.12357H6.23623C6.23623 4.7137 6.24093 3.36963 6.23153 2.02085C6.22213 0.733172 5.66288 0.00943925 4.69007 4.01222e-05C3.71256 -0.009359 3.11572 0.709674 3.09692 1.97856C3.07812 3.32733 3.09222 4.67611 3.09222 6.09067C0.634348 6.80971 0.00930652 7.63683 0.00460696 10.0806C0.00460696 11.2179 0.00460696 12.3552 0.00930652 13.4972C0.0422035 18.5022 -0.498246 17.4542 3.12512 20.9742C4.64308 22.4452 5.79447 23.8503 5.4608 26.1625C5.28222 27.375 6.03885 27.9624 7.27953 27.9906C8.23824 28.0094 9.20165 27.9953 10.1604 27.9953C13.0318 27.9953 13.3138 27.7698 13.2292 24.9218C13.1963 23.7657 13.4783 22.9104 14.3665 22.1397C15.4615 21.1857 16.4202 20.0719 17.4823 19.0709C18.3141 18.286 18.6901 17.3649 18.6713 16.2229C18.6431 14.2303 18.6666 12.2377 18.6619 10.2498ZM12.778 17.8443C12.778 18.1498 12.5336 18.3988 12.2235 18.3988H6.62159C6.31612 18.3988 6.06704 18.1498 6.06704 17.8443V17.0971C6.06704 16.942 6.13284 16.7963 6.24563 16.6929L9.28155 13.8497C9.52122 13.6382 9.69041 13.4455 9.7985 13.281C9.90659 13.1118 9.97708 12.9614 10.0147 12.8298C10.0523 12.6983 10.0711 12.5714 10.0711 12.4492C10.0711 12.1766 9.97708 11.9651 9.7938 11.8053C9.61051 11.6503 9.33324 11.5751 8.96198 11.5751C8.6518 11.5751 8.36043 11.6409 8.09256 11.7818C7.94687 11.857 7.81998 11.951 7.70249 12.0685C7.51921 12.2424 7.25133 12.2988 7.03045 12.1766L6.17513 11.7067C5.85556 11.5281 5.79447 11.1004 6.03885 10.8325C6.30202 10.5459 6.62629 10.3015 7.00226 10.0947C7.6132 9.76573 8.33693 9.60125 9.18285 9.60125C9.85019 9.60125 10.4329 9.70934 10.9311 9.93022C11.4339 10.1464 11.824 10.4472 12.1107 10.8325C12.3927 11.2179 12.5336 11.6832 12.5336 12.2236C12.5336 12.4962 12.496 12.7735 12.4209 13.0507C12.3504 13.3327 12.2094 13.6241 11.9979 13.9295C11.7864 14.2397 11.4809 14.5828 11.0674 14.9588L9.45073 16.4626H12.2235C12.5336 16.4626 12.778 16.7117 12.778 17.0172V17.8443Z" fill="#D9D9D9"/>
  </g>
  <defs>
    <clipPath id="clip0_419_1661">
      <rect width="18.6761" height="28" fill="white"/>
    </clipPath>
  </defs>
</svg>