<svg xmlns="http://www.w3.org/2000/svg" width="28" height="28" viewBox="0 0 28 28" fill="none">
  <g clip-path="url(#clip0_419_1666)">
    <path d="M16.4143 14.3625C14.4762 13.0025 12.5619 11.6141 10.638 10.2447C9.42968 9.38704 8.41564 9.36808 7.20257 10.2163C5.26451 11.5762 3.34067 12.9646 1.40734 14.3293C0.497546 14.9738 0 15.8125 0 16.9592C0.0142156 20.0772 -0.00947707 23.1999 0.00947707 26.3226C0.0142156 27.5309 0.507023 27.9905 1.6964 27.9953C2.99475 28 4.29785 28 5.59621 27.9953C5.84261 27.9953 14.5947 28.0047 16.1205 27.9953C17.3193 27.9858 17.7363 27.583 17.7458 26.3699C17.76 23.2188 17.7363 20.0677 17.7553 16.9166C17.76 15.8078 17.3099 14.9927 16.4143 14.3625ZM10.5622 24.3703C10.5622 24.5456 10.42 24.6925 10.2447 24.6925H8.32087C8.1408 24.6925 7.99865 24.5456 7.99865 24.3703V17.6131H6.63395C6.45862 17.6131 6.31173 17.471 6.31173 17.2957V15.9404C6.31173 15.7604 6.45862 15.6182 6.63395 15.6182H10.2447C10.42 15.6182 10.5622 15.7604 10.5622 15.9404V24.3703Z" fill="#D9D9D9"/>
    <path d="M27.8953 7.97969C27.8858 6.28804 26.9144 5.24082 25.3222 5.23134H24.7394C24.7773 5.12709 24.801 5.01811 24.801 4.89964V0.924014C24.801 0.416991 24.3888 0 23.877 0H23.0051C22.4981 0 22.0811 0.412253 22.0811 0.924014V4.90438C22.0811 5.01811 22.1048 5.12236 22.1427 5.2266C21.7162 5.22187 21.2898 5.22187 20.8633 5.2266C20.9012 5.12709 20.9249 5.01811 20.9249 4.90438V2.86681C20.9249 2.35979 20.5126 1.9428 20.0009 1.9428H19.129C18.622 1.9428 18.205 2.35505 18.205 2.86681V4.90438C18.205 5.01811 18.2287 5.12236 18.2666 5.2266C16.8024 5.2266 15.3429 5.23134 13.8787 5.23608C12.7177 5.24556 11.8648 5.95634 11.5236 7.05568C11.3862 7.5011 11.4478 7.76646 11.8695 8.06025C13.8929 9.45812 14.5516 9.96988 16.4754 11.4909C17.3046 12.1449 19.309 13.9502 19.9014 14.8458C20.1525 15.2249 20.3515 15.3671 20.7638 15.3529C21.413 15.3339 22.0669 15.3481 22.7397 15.3481V17.8738H20.342V20.4326H22.7255V22.9677H20.3231V27.9147C20.451 27.9574 20.5079 27.9858 20.56 27.9858C22.0053 27.9953 23.4505 28.0047 24.8958 28C26.9713 28 27.9048 27.0665 27.9095 24.9768C27.919 22.3801 27.9095 19.7786 27.9095 17.1772C27.9095 14.1114 27.9237 11.0455 27.9 7.98443L27.8953 7.97969ZM22.7397 12.7324H20.3373V10.3205H22.7397V12.7324Z" fill="#D9D9D9"/>
  </g>
  <defs>
    <clipPath id="clip0_419_1666">
      <rect width="27.91" height="28" fill="white"/>
    </clipPath>
  </defs>
</svg>