<svg xmlns="http://www.w3.org/2000/svg" width="27" height="25" viewBox="0 0 27 25" fill="none">
  <g clip-path="url(#clip0_419_1653)">
    <path d="M24.758 6.733H2.16337C2.03296 6.733 1.92188 6.83926 1.92188 6.96967V21.6335C1.92188 23.493 3.42883 25 5.28837 25H21.633C23.4926 25 24.9995 23.493 24.9995 21.6335V6.96967C24.9995 6.83926 24.8933 6.733 24.758 6.733ZM17.3827 19.4214C17.0784 19.9189 16.6195 20.3246 15.9964 20.6337C15.3734 20.9476 14.5668 21.1022 13.5863 21.1022C12.9053 21.1022 12.2291 21.0201 11.548 20.8607C10.9684 20.7206 10.4565 20.5226 10.0169 20.2714C9.89618 20.199 9.85271 20.0444 9.9155 19.9189L10.669 18.3443C10.7366 18.1994 10.9105 18.1511 11.0505 18.2284C11.3742 18.4071 11.7219 18.552 12.0987 18.6631C12.5768 18.8031 13.0453 18.8707 13.4993 18.8707C13.9244 18.8707 14.2721 18.8031 14.5426 18.6582C14.8856 18.4747 15.0981 18.0738 15.0353 17.6922C14.9966 17.4701 14.8856 17.2913 14.6972 17.1561C14.4653 16.9919 14.0838 16.9098 13.5573 16.9098H12.6686C12.5189 16.9098 12.3981 16.7842 12.3981 16.6345V15.2869C12.3981 15.2193 12.4271 15.1517 12.4706 15.1034L14.1369 13.2969H10.5531C10.4033 13.2969 10.2826 13.1762 10.2826 13.0265V11.4229C10.2826 11.2732 10.4033 11.1524 10.5531 11.1524H17.0735C17.2233 11.1524 17.3488 11.2732 17.3488 11.4229V12.785C17.3488 12.8574 17.3199 12.9202 17.2764 12.9733L15.3347 15.0551C15.9723 15.1758 16.4891 15.4125 16.8852 15.7554C17.5179 16.3012 17.8367 17.0015 17.8367 17.8565C17.8367 18.4022 17.6821 18.9239 17.3827 19.4214Z" fill="#D9D9D9"/>
    <path d="M25 0H1.92233C0.860658 0 0 0.860658 0 1.92233V2.8835C0 3.94518 0.860658 4.80583 1.92233 4.80583H25C26.0617 4.80583 26.9223 3.94518 26.9223 2.8835V1.92233C26.9223 0.860658 26.0617 0 25 0Z" fill="#D9D9D9"/>
  </g>
  <defs>
    <clipPath id="clip0_419_1653">
      <rect width="26.9223" height="25" fill="white"/>
    </clipPath>
  </defs>
</svg>